<svg width="56" height="54" viewBox="0 0 56 54" fill="none" xmlns="http://www.w3.org/2000/svg">
<path fill-rule="evenodd" clip-rule="evenodd" d="M35.1019 24.2309C35.14 23.7353 35.5727 23.3645 36.0682 23.4026C43.5415 23.9775 49.4992 30.1141 49.4992 37.7999C49.4992 45.677 42.9763 52.1999 35.0992 52.1999C27.2222 52.1999 20.6992 45.677 20.6992 37.7999C20.6992 36.0688 21.082 34.5378 21.4365 33.1201L21.4461 33.0817C21.5666 32.5994 22.0553 32.3063 22.5375 32.4268C23.0197 32.5474 23.3129 33.036 23.1923 33.5182C22.8295 34.9698 22.4992 36.3067 22.4992 37.7999C22.4992 44.6829 28.2163 50.3999 35.0992 50.3999C41.9822 50.3999 47.6992 44.6829 47.6992 37.7999C47.6992 31.0858 42.4969 25.7024 35.9302 25.1973C35.4346 25.1592 35.0637 24.7265 35.1019 24.2309Z" fill="white"/>
<path fill-rule="evenodd" clip-rule="evenodd" d="M35.9984 27.8999C36.4955 27.8999 36.8984 28.3028 36.8984 28.7999V30.5999H39.5984C40.343 30.5999 41.0333 30.852 41.5398 31.3585C42.0463 31.865 42.2984 32.5554 42.2984 33.2999V40.4999C42.2984 41.2444 42.0463 41.9348 41.5398 42.4413C41.0333 42.9478 40.343 43.1999 39.5984 43.1999H30.5984C29.8539 43.1999 29.1635 42.9478 28.657 42.4413C28.1505 41.9348 27.8984 41.2444 27.8984 40.4999V33.2999C27.8984 32.5554 28.1505 31.865 28.657 31.3585C29.1635 30.852 29.8539 30.5999 30.5984 30.5999H33.2984C33.7955 30.5999 34.1984 31.0028 34.1984 31.4999C34.1984 31.997 33.7955 32.3999 33.2984 32.3999H30.5984C30.263 32.3999 30.0533 32.5078 29.9298 32.6313C29.8063 32.7548 29.6984 32.9644 29.6984 33.2999V40.4999C29.6984 40.8354 29.8063 41.045 29.9298 41.1685C30.0533 41.292 30.263 41.3999 30.5984 41.3999H39.5984C39.9339 41.3999 40.1435 41.292 40.267 41.1685C40.3905 41.045 40.4984 40.8354 40.4984 40.4999V33.2999C40.4984 32.9644 40.3905 32.7548 40.267 32.6313C40.1435 32.5078 39.9339 32.3999 39.5984 32.3999H35.9984C35.5014 32.3999 35.0984 31.997 35.0984 31.4999V28.7999C35.0984 28.3028 35.5014 27.8999 35.9984 27.8999Z" fill="white"/>
<path fill-rule="evenodd" clip-rule="evenodd" d="M33.3008 38.7C33.3008 38.203 33.7037 37.8 34.2008 37.8H36.0008C36.4978 37.8 36.9008 38.203 36.9008 38.7C36.9008 39.1971 36.4978 39.6 36.0008 39.6H34.2008C33.7037 39.6 33.3008 39.1971 33.3008 38.7Z" fill="white"/>
<path fill-rule="evenodd" clip-rule="evenodd" d="M37.7984 34.2C38.2955 34.2 38.6984 34.6029 38.6984 35.1V35.28C38.6984 35.777 38.2955 36.18 37.7984 36.18C37.3014 36.18 36.8984 35.777 36.8984 35.28V35.1C36.8984 34.6029 37.3014 34.2 37.7984 34.2Z" fill="white"/>
<path fill-rule="evenodd" clip-rule="evenodd" d="M32.4 34.2C32.8971 34.2 33.3 34.6029 33.3 35.1V35.28C33.3 35.777 32.8971 36.18 32.4 36.18C31.9029 36.18 31.5 35.777 31.5 35.28V35.1C31.5 34.6029 31.9029 34.2 32.4 34.2Z" fill="white"/>
<path fill-rule="evenodd" clip-rule="evenodd" d="M27.9046 49.5748C28.3168 46.0711 31.3925 43.2 35.0985 43.2C38.7932 43.2 41.9077 46.0699 42.1169 49.6271C42.137 49.9685 41.9619 50.2917 41.665 50.4614C37.5801 52.7956 32.5769 52.5754 28.396 50.4849C28.0568 50.3154 27.8603 49.9514 27.9046 49.5748ZM29.8057 49.1599C33.2165 50.6706 37.0601 50.7713 40.2531 49.1761C39.8314 46.8634 37.6795 45 35.0985 45C32.5488 45 30.3791 46.8321 29.8057 49.1599Z" fill="white"/>
<path fill-rule="evenodd" clip-rule="evenodd" d="M22.5672 21.7991C22.7554 21.339 23.281 21.1187 23.741 21.3069L27.701 22.9269C27.7219 22.9354 27.7425 22.9448 27.7627 22.9549C28.9489 23.548 30.0294 24.3857 30.6852 25.6974C30.9075 26.1419 30.7273 26.6826 30.2827 26.9048C29.8381 27.1271 29.2975 26.9469 29.0753 26.5024C28.6554 25.6627 27.9461 25.064 26.9873 24.5797L23.0595 22.9729C22.5994 22.7847 22.379 22.2591 22.5672 21.7991Z" fill="white"/>
<path fill-rule="evenodd" clip-rule="evenodd" d="M18.8206 21.7675C19.0263 22.22 18.8262 22.7536 18.3737 22.9593L14.4293 24.7522C13.4628 25.2378 12.7483 25.8384 12.3263 26.6825C12.104 27.127 11.5634 27.3072 11.1188 27.085C10.6742 26.8627 10.494 26.3221 10.7163 25.8775C11.3722 24.5658 12.4526 23.7281 13.6388 23.135C13.6487 23.13 13.6588 23.1252 13.6689 23.1206L17.6289 21.3206C18.0814 21.115 18.6149 21.315 18.8206 21.7675Z" fill="white"/>
<path fill-rule="evenodd" clip-rule="evenodd" d="M20.7008 8.99995C18.6778 8.99995 17.1008 10.577 17.1008 12.6V15.3C17.1008 16.4217 17.6593 17.4439 18.5769 18.2086C18.7821 18.3795 18.9008 18.6328 18.9008 18.9V22.14C18.9008 22.637 18.4978 23.04 18.0008 23.04C17.5037 23.04 17.1008 22.637 17.1008 22.14V19.3031C16.0318 18.2864 15.3008 16.9012 15.3008 15.3V12.6C15.3008 9.5829 17.6837 7.19995 20.7008 7.19995C23.7178 7.19995 26.1008 9.5829 26.1008 12.6V15.3C26.1008 16.9012 25.3697 18.2864 24.3008 19.3031V22.14C24.3008 22.637 23.8978 23.04 23.4008 23.04C22.9037 23.04 22.5008 22.637 22.5008 22.14V18.9C22.5008 18.6328 22.6194 18.3795 22.8246 18.2086C23.7422 17.4439 24.3008 16.4217 24.3008 15.3V12.6C24.3008 10.577 22.7237 8.99995 20.7008 8.99995Z" fill="white"/>
<path fill-rule="evenodd" clip-rule="evenodd" d="M25.1994 14.3999C25.6964 14.3999 26.0994 14.8028 26.0994 15.2999C26.0994 17.9115 24.1517 20.0706 21.7604 20.5054C21.2713 20.5943 20.8028 20.2699 20.7139 19.7809C20.625 19.2919 20.9493 18.8233 21.4384 18.7344C23.007 18.4492 24.2994 17.0083 24.2994 15.2999C24.2994 14.8028 24.7023 14.3999 25.1994 14.3999Z" fill="white"/>
<path fill-rule="evenodd" clip-rule="evenodd" d="M20.7008 3.60005C13.742 3.60005 8.10078 9.24126 8.10078 16.2C8.10078 23.1588 13.742 28.8 20.7008 28.8C27.6596 28.8 33.3008 23.1588 33.3008 16.2C33.3008 9.24126 27.6596 3.60005 20.7008 3.60005ZM6.30078 16.2C6.30078 8.24715 12.7479 1.80005 20.7008 1.80005C28.6537 1.80005 35.1008 8.24715 35.1008 16.2C35.1008 24.1529 28.6537 30.6 20.7008 30.6C12.7479 30.6 6.30078 24.1529 6.30078 16.2Z" fill="white"/>
<path fill-rule="evenodd" clip-rule="evenodd" d="M7.2 27.9C7.50771 27.9 7.79409 28.0572 7.9593 28.3168L14.2593 38.2168C14.4356 38.4939 14.447 38.8451 14.2889 39.1331C14.1309 39.421 13.8285 39.6 13.5 39.6H9.9V43.2C9.9 43.697 9.49706 44.1 9 44.1C8.50294 44.1 8.1 43.697 8.1 43.2V38.7C8.1 38.2029 8.50294 37.8 9 37.8H11.8605L7.2 30.4763L2.53951 37.8H5.4C5.89706 37.8 6.3 38.2029 6.3 38.7V43.2C6.3 48.1029 10.3971 52.2 15.3 52.2C17.401 52.2 19.368 51.393 21.0378 50.0572C21.4259 49.7467 21.9923 49.8096 22.3028 50.1977C22.6133 50.5859 22.5504 51.1522 22.1622 51.4627C20.232 53.007 17.879 54 15.3 54C9.40294 54 4.5 49.097 4.5 43.2V39.6H0.900001C0.571517 39.6 0.269124 39.421 0.111055 39.1331C-0.0470137 38.8451 -0.0356493 38.4939 0.140705 38.2168L6.44071 28.3168C6.60591 28.0572 6.89229 27.9 7.2 27.9Z" fill="white"/>
<path fill-rule="evenodd" clip-rule="evenodd" d="M33.6386 2.53722C35.5689 0.993004 37.9218 0 40.5008 0C46.3979 0 51.3008 4.90294 51.3008 10.8V14.4H54.9008C55.2293 14.4 55.5317 14.579 55.6898 14.8669C55.8478 15.1549 55.8365 15.5061 55.6601 15.7832L49.3601 25.6832C49.1949 25.9428 48.9085 26.1 48.6008 26.1C48.2931 26.1 48.0067 25.9428 47.8415 25.6832L41.5415 15.7832C41.3652 15.5061 41.3538 15.1549 41.5119 14.8669C41.6699 14.579 41.9723 14.4 42.3008 14.4H45.9008V10.8C45.9008 10.3029 46.3038 9.9 46.8008 9.9C47.2979 9.9 47.7008 10.3029 47.7008 10.8V15.3C47.7008 15.7971 47.2979 16.2 46.8008 16.2H43.9403L48.6008 23.5236L53.2613 16.2H50.4008C49.9038 16.2 49.5008 15.7971 49.5008 15.3V10.8C49.5008 5.89706 45.4038 1.8 40.5008 1.8C38.3998 1.8 36.4328 2.607 34.763 3.94278C34.3749 4.25329 33.8085 4.19036 33.498 3.80223C33.1875 3.41409 33.2505 2.84773 33.6386 2.53722Z" fill="white"/>
</svg>
