<svg width="528" height="386" viewBox="0 0 528 386" fill="none" xmlns="http://www.w3.org/2000/svg">
<path opacity="0.2" d="M475.501 35.0004C460.5 38.53 411.5 57.5 382.001 72.0004C379.001 73.2346 356 80 374.001 97C389.342 111.488 419 128.5 439.001 123.5C456.49 119.128 484.501 57.5004 491.501 42.0004C498.501 26.5004 484.001 33.0004 475.501 35.0004Z" fill="white"/>
<path d="M2 383.5C26.5 368 78.1 333.5 96.5 309.5C119.5 279.5 121 184.5 62.5 175.5C4 166.5 -2.5 222 14.5 258.5C31.5 295 70.5 312.501 131 309.5C191.5 306.5 259.5 264 283.5 207.5C307.5 151 269.5 117 251 144C229.532 175.331 279.755 211.5 312.5 211.5C360.5 211.5 402.5 150 408.5 120M408.5 120C410.468 109.502 409.881 98.0627 409.054 91.2532C408.764 88.8672 407.279 86.826 405.175 85.6643L376.039 69.5788C370.005 66.2475 370.727 57.3542 377.219 55.0397L526 2M408.5 120L420 91M408.5 120L436.983 107M526 2C506.667 40 466.4 116.8 460 120C456.179 121.911 446.462 115.122 436.983 107M526 2L420 91M526 2L410.5 80M420 91C424.298 95.4319 430.586 101.52 436.983 107" stroke="white" stroke-width="4" stroke-linecap="round"/>
</svg>
