<svg width="38" height="38" viewBox="0 0 38 38" fill="none" xmlns="http://www.w3.org/2000/svg">
<g id="fi_159075" clip-path="url(#clip0_1002_3772)">
<g id="Group">
<g id="Group_2">
<path id="Vector" d="M9.47845 28.853C7.92879 27.4575 6.81088 25.7845 6.07846 23.9881C4.1356 19.2235 5.04535 13.5569 8.83854 9.64803L12.3388 13.1482C12.5315 13.341 12.8784 13.2022 12.9247 12.917L14.8367 0.404049C14.8676 0.195886 14.6902 0.0185617 14.4821 0.0494007L1.96145 1.96142C1.67619 2.00767 1.53742 2.35461 1.73016 2.54736L5.23809 6.05529C-0.551921 11.9764 -1.53877 20.858 2.26213 27.7968C3.40318 29.8861 4.98367 31.7981 6.99591 33.4017C10.419 36.1233 14.6286 37.4262 18.8072 37.3414L19.5936 32.199C15.9932 32.5074 12.2925 31.3972 9.47845 28.853Z" fill="white"/>
<path id="Vector_2" d="M32.7618 31.9446C38.5518 26.0235 39.5386 17.1419 35.7377 10.2031C34.5967 8.11375 33.0162 6.20173 31.004 4.5981C27.5808 1.87657 23.3713 0.57362 19.1926 0.658427L18.4062 5.80082C21.999 5.49243 25.7074 6.60264 28.5214 9.14685C30.0711 10.5423 31.189 12.2153 31.9214 14.0117C33.8643 18.7763 32.9545 24.443 29.1613 28.3518L25.6611 24.8516C25.4684 24.6588 25.1214 24.7976 25.0752 25.0829L23.1632 37.5958C23.1323 37.804 23.3096 37.9813 23.5178 37.9504L36.0384 36.0384C36.3237 35.9922 36.4548 35.6452 36.2697 35.4525L32.7618 31.9446Z" fill="white"/>
</g>
</g>
</g>
<defs>
<clipPath id="clip0_1002_3772">
<rect width="38" height="38" fill="white"/>
</clipPath>
</defs>
</svg>
