<svg width="55" height="54" viewBox="0 0 55 54" fill="none" xmlns="http://www.w3.org/2000/svg">
<path fill-rule="evenodd" clip-rule="evenodd" d="M35.4916 5.24517C35.1381 4.95339 34.6139 4.97288 34.2831 5.30364C33.9317 5.65511 33.9317 6.22496 34.2831 6.57644C34.2858 6.57908 34.2885 6.58181 34.2913 6.5846C34.3287 6.62201 34.3779 6.67131 34.4243 6.71307C34.4761 6.75966 34.5686 6.83829 34.697 6.90252C34.9536 7.0308 35.2204 7.02195 35.2719 7.02024C35.2756 7.02012 35.2781 7.02004 35.2795 7.02004C35.7766 7.02004 36.1795 6.6171 36.1795 6.12004C36.1795 5.69603 35.8863 5.34051 35.4916 5.24517Z" fill="white"/>
<path fill-rule="evenodd" clip-rule="evenodd" d="M27 0.9C27 0.402944 27.4029 0 27.9 0C29.9871 0 32.049 0.379563 34.2383 0.926872L34.2491 0.929567C41.0642 2.72303 46.485 7.09847 50.0267 12.5436L52.8291 10.9211C53.1118 10.7574 53.461 10.7598 53.7415 10.9273C54.0219 11.0948 54.1896 11.4012 54.1796 11.7277L53.8196 23.4277C53.8099 23.7422 53.6367 24.0288 53.3627 24.1836C53.0887 24.3384 52.7538 24.3388 52.4794 24.1848L42.2194 18.4248C41.9375 18.2665 41.7622 17.9692 41.76 17.646C41.7579 17.3227 41.9293 17.0231 42.2091 16.8611L44.9058 15.2999C44.6691 14.8581 44.3011 14.2349 43.7762 13.5106C42.7051 12.0325 40.9849 10.1384 38.3985 8.50034C37.9785 8.23439 37.8537 7.67838 38.1197 7.25845C38.3856 6.83853 38.9416 6.71371 39.3615 6.97966C42.1751 8.76158 44.0549 10.8275 45.2338 12.4544C45.8233 13.2679 46.2385 13.973 46.5088 14.4804C46.6439 14.7342 46.743 14.9389 46.8095 15.0834C46.8428 15.1556 46.868 15.2129 46.8855 15.2537L46.9061 15.3025L46.9123 15.3174L46.9143 15.3224L46.915 15.3243C46.9152 15.3246 46.9156 15.3257 46.08 15.66L46.915 15.3243C47.0811 15.7394 46.9178 16.2149 46.5309 16.4389L44.4771 17.628L52.0661 21.8885L52.3307 13.2896L50.3109 14.4589C50.1739 14.5382 50.0184 14.58 49.86 14.58H49.68C49.3669 14.58 49.0763 14.4173 48.9127 14.1503C45.5995 8.74468 40.3829 4.40668 33.7963 2.67177C31.6677 2.13986 29.7713 1.8 27.9 1.8C27.4029 1.8 27 1.39706 27 0.9Z" fill="white"/>
<path fill-rule="evenodd" clip-rule="evenodd" d="M48.936 35.4918C49.2278 35.1383 49.2083 34.6141 48.8775 34.2834C48.5261 33.9319 47.9562 33.9319 47.6047 34.2834C47.6021 34.286 47.5994 34.2887 47.5966 34.2915C47.5592 34.3289 47.5099 34.3782 47.4681 34.4246C47.4215 34.4764 47.3429 34.5688 47.2787 34.6973C47.1504 34.9539 47.1592 35.2206 47.1609 35.2722C47.1611 35.2758 47.1611 35.2784 47.1611 35.2798C47.1611 35.7768 47.5641 36.1798 48.0611 36.1798C48.4852 36.1798 48.8407 35.8866 48.936 35.4918Z" fill="white"/>
<path fill-rule="evenodd" clip-rule="evenodd" d="M53.0992 27C53.5963 27 53.9992 27.4029 53.9992 27.9C53.9992 29.9857 53.6205 32.0484 53.0686 34.0728C51.2745 40.8862 46.8997 46.3056 41.4557 49.8467L43.0781 52.6491C43.2405 52.9296 43.2395 53.2759 43.0754 53.5555C42.9113 53.8351 42.6095 54.0049 42.2854 53.9999L30.5854 53.8199C30.2683 53.815 29.9772 53.6436 29.819 53.3687C29.6609 53.0938 29.6592 52.756 29.8144 52.4794L35.5744 42.2194C35.7327 41.9375 36.03 41.7622 36.3533 41.76C36.6765 41.7579 36.9761 41.9293 37.1381 42.2091L38.6865 44.8836C39.1302 44.6298 39.7527 44.2407 40.4751 43.6963C41.9592 42.5778 43.8579 40.8094 45.4989 38.2185C45.7648 37.7985 46.3208 37.6737 46.7408 37.9397C47.1607 38.2056 47.2855 38.7616 47.0196 39.1815C45.2405 41.9906 43.1793 43.9122 41.5584 45.1337C40.7476 45.7448 40.0453 46.182 39.5403 46.4688C39.2877 46.6123 39.0842 46.7183 38.9409 46.7898C38.8692 46.8255 38.8125 46.8527 38.7722 46.8715L38.7241 46.8937L38.7097 46.9002L38.7048 46.9024L38.7031 46.9032L38.7023 46.9035C38.702 46.9036 38.7017 46.9038 38.3392 46.08L38.7017 46.9038C38.2818 47.0885 37.7902 46.9279 37.5603 46.5309L36.3712 44.4771L32.1235 52.0433L40.7241 52.1757L39.5403 50.1309C39.461 49.9939 39.4192 49.8383 39.4192 49.68V49.5C39.4192 49.1869 39.582 48.8963 39.8489 48.7327C45.256 45.4186 49.5949 40.2 51.3288 33.611L51.3309 33.6032L51.3309 33.6032C51.8585 31.6689 52.1992 29.7729 52.1992 27.9C52.1992 27.4029 52.6022 27 53.0992 27Z" fill="white"/>
<path fill-rule="evenodd" clip-rule="evenodd" d="M18.6879 48.7548C19.0415 49.0465 19.5656 49.0271 19.8964 48.6963C20.2479 48.3448 20.2479 47.775 19.8964 47.4235C19.8937 47.4209 19.891 47.4181 19.8882 47.4153C19.8509 47.3779 19.8016 47.3286 19.7552 47.2869C19.7034 47.2403 19.611 47.1617 19.4825 47.0974C19.2259 46.9691 18.9592 46.978 18.9076 46.9797C18.904 46.9798 18.9014 46.9799 18.9 46.9799C18.4029 46.9799 18 47.3828 18 47.8799C18 48.3039 18.2932 48.6594 18.6879 48.7548Z" fill="white"/>
<path fill-rule="evenodd" clip-rule="evenodd" d="M0.631303 29.8197C0.906214 29.6616 1.24405 29.6599 1.52058 29.8151L11.7806 35.5751C12.0625 35.7334 12.2378 36.0307 12.24 36.354C12.2421 36.6772 12.0707 36.9768 11.7909 37.1388L9.11641 38.6872C9.37021 39.1309 9.75934 39.7534 10.3037 40.4758C11.4222 41.9599 13.1906 43.8586 15.7815 45.4996C16.2015 45.7655 16.3263 46.3215 16.0603 46.7415C15.7944 47.1614 15.2384 47.2862 14.8185 47.0203C12.0094 45.2412 10.0878 43.18 8.86625 41.5591C8.25524 40.7483 7.81803 40.046 7.53119 39.541C7.38772 39.2884 7.28169 39.0849 7.21021 38.9416C7.17446 38.8699 7.14732 38.8132 7.12845 38.7729L7.10628 38.7248L7.09975 38.7104L7.09761 38.7055L7.09682 38.7038C7.09668 38.7034 7.09622 38.7024 7.92 38.3399L7.09682 38.7038C6.91208 38.2839 7.07208 37.7909 7.46907 37.561L9.52295 36.3719L1.95666 32.1242L1.82434 40.7248L3.86907 39.541C4.00611 39.4617 4.16165 39.4199 4.32 39.4199H4.5C4.82075 39.4199 5.11725 39.5906 5.27831 39.868C8.40201 45.2477 13.7878 49.5924 20.389 51.3296L20.3968 51.3316C22.3311 51.8591 24.2271 52.1999 26.1 52.1999C26.5971 52.1999 27 52.6029 27 53.0999C27 53.597 26.5971 53.9999 26.1 53.9999C24.0143 53.9999 21.9516 53.6212 19.9272 53.0693C13.1352 51.2809 7.54461 46.9216 4.13893 41.4647L1.35093 43.0788C1.07036 43.2412 0.724097 43.2402 0.444483 43.0761C0.164869 42.912 -0.0048802 42.6102 0.000106942 42.2861L0.180107 30.5861C0.184985 30.269 0.356393 29.9779 0.631303 29.8197ZM8.74316 37.976C8.74302 37.9757 8.74305 37.9758 8.74316 37.976V37.976Z" fill="white"/>
<path fill-rule="evenodd" clip-rule="evenodd" d="M6.11906 17.8198C6.61612 17.8198 7.01906 18.2228 7.01906 18.7198C7.01906 18.7212 7.01915 18.7238 7.01927 18.7274C7.02098 18.779 7.02983 19.0458 6.90155 19.3023C6.83731 19.4308 6.75869 19.5232 6.71209 19.575C6.67034 19.6214 6.62104 19.6707 6.58362 19.7081C6.58083 19.7109 6.57811 19.7136 6.57546 19.7162C6.22399 20.0677 5.65414 20.0677 5.30267 19.7162C4.97191 19.3855 4.95242 18.8613 5.24419 18.5078C5.33953 18.113 5.69506 17.8198 6.11906 17.8198Z" fill="white"/>
<path fill-rule="evenodd" clip-rule="evenodd" d="M10.9152 0.459517C11.0769 0.171381 11.3835 -0.00497575 11.7138 0.000106981L23.4138 0.180107C23.7309 0.184985 24.0221 0.356393 24.1802 0.631303C24.3383 0.906213 24.34 1.24405 24.1848 1.52058L18.4248 11.7806C18.2633 12.0681 17.9576 12.2444 17.6278 12.2399C17.2981 12.2355 16.9972 12.051 16.8436 11.7592L15.4619 9.13406C15.0204 9.38811 14.41 9.77181 13.7042 10.3037C12.2201 11.4222 10.3213 13.1906 8.68034 15.7815C8.41439 16.2015 7.85838 16.3263 7.43845 16.0603C7.01853 15.7944 6.89371 15.2384 7.15966 14.8185C8.93872 12.0094 10.9999 10.0878 12.6208 8.86625C13.4316 8.25524 14.134 7.81803 14.6389 7.53119C14.8915 7.38772 15.095 7.28169 15.2383 7.21021C15.31 7.17446 15.3667 7.14732 15.407 7.12845L15.4551 7.10628L15.4696 7.09975L15.4744 7.09761L15.4762 7.09682L15.4769 7.0965C15.4772 7.09635 15.4775 7.09622 15.84 7.92L15.4775 7.09622C15.9101 6.90587 16.4163 7.08258 16.6364 7.50083L17.6655 9.45608L21.8757 1.95666L13.349 1.82548L14.6209 3.83941C14.7118 3.98324 14.76 4.14988 14.76 4.32V4.5C14.76 4.81311 14.5973 5.10372 14.3303 5.26734C8.92322 8.58136 4.58433 13.8 2.85037 20.389C2.84338 20.4156 2.83519 20.4418 2.82581 20.4676C2.13935 22.3553 1.8 24.2315 1.8 26.1C1.8 26.5971 1.39706 27 0.9 27C0.402944 27 0 26.5971 0 26.1C0 24.0216 0.375913 21.9507 1.12012 19.8912C2.9175 13.1046 7.27641 7.70381 12.7 4.16869L10.9391 1.38059C10.7626 1.10123 10.7534 0.747653 10.9152 0.459517Z" fill="white"/>
<path fill-rule="evenodd" clip-rule="evenodd" d="M27.0016 14.4001C20.0428 14.4001 14.4016 20.0413 14.4016 27.0001C14.4016 33.9589 20.0428 39.6001 27.0016 39.6001C33.9604 39.6001 39.6016 33.9589 39.6016 27.0001C39.6016 20.0413 33.9604 14.4001 27.0016 14.4001ZM12.6016 27.0001C12.6016 19.0472 19.0487 12.6001 27.0016 12.6001C34.9545 12.6001 41.4016 19.0472 41.4016 27.0001C41.4016 34.953 34.9545 41.4001 27.0016 41.4001C19.0487 41.4001 12.6016 34.953 12.6016 27.0001Z" fill="white"/>
<path fill-rule="evenodd" clip-rule="evenodd" d="M27.9008 17.1001C28.3978 17.1001 28.8008 17.503 28.8008 18.0001V19.8001H31.5008C32.2453 19.8001 32.9357 20.0522 33.4422 20.5587C33.9487 21.0652 34.2008 21.7556 34.2008 22.5001V29.7001C34.2008 30.4446 33.9487 31.135 33.4422 31.6415C32.9357 32.148 32.2453 32.4001 31.5008 32.4001H22.5008C21.7563 32.4001 21.0659 32.148 20.5594 31.6415C20.0529 31.135 19.8008 30.4446 19.8008 29.7001V22.5001C19.8008 21.7556 20.0529 21.0652 20.5594 20.5587C21.0659 20.0522 21.7563 19.8001 22.5008 19.8001H25.2008C25.6978 19.8001 26.1008 20.203 26.1008 20.7001C26.1008 21.1972 25.6978 21.6001 25.2008 21.6001H22.5008C22.1653 21.6001 21.9557 21.708 21.8322 21.8315C21.7087 21.955 21.6008 22.1646 21.6008 22.5001V29.7001C21.6008 30.0356 21.7087 30.2452 21.8322 30.3687C21.9557 30.4922 22.1653 30.6001 22.5008 30.6001H31.5008C31.8363 30.6001 32.0459 30.4922 32.1694 30.3687C32.2929 30.2452 32.4008 30.0356 32.4008 29.7001V22.5001C32.4008 22.1646 32.2929 21.955 32.1694 21.8315C32.0459 21.708 31.8363 21.6001 31.5008 21.6001H27.9008C27.4037 21.6001 27.0008 21.1972 27.0008 20.7001V18.0001C27.0008 17.503 27.4037 17.1001 27.9008 17.1001Z" fill="white"/>
<path fill-rule="evenodd" clip-rule="evenodd" d="M25.1992 27.9C25.1992 27.4029 25.6022 27 26.0992 27H27.8992C28.3963 27 28.7992 27.4029 28.7992 27.9C28.7992 28.3971 28.3963 28.8 27.8992 28.8H26.0992C25.6022 28.8 25.1992 28.3971 25.1992 27.9Z" fill="white"/>
<path fill-rule="evenodd" clip-rule="evenodd" d="M29.7008 23.3999C30.1978 23.3999 30.6008 23.8028 30.6008 24.2999V24.4799C30.6008 24.977 30.1978 25.3799 29.7008 25.3799C29.2037 25.3799 28.8008 24.977 28.8008 24.4799V24.2999C28.8008 23.8028 29.2037 23.3999 29.7008 23.3999Z" fill="white"/>
<path fill-rule="evenodd" clip-rule="evenodd" d="M24.2984 23.3999C24.7955 23.3999 25.1984 23.8028 25.1984 24.2999V24.4799C25.1984 24.977 24.7955 25.3799 24.2984 25.3799C23.8014 25.3799 23.3984 24.977 23.3984 24.4799V24.2999C23.3984 23.8028 23.8014 23.3999 24.2984 23.3999Z" fill="white"/>
<path fill-rule="evenodd" clip-rule="evenodd" d="M19.807 38.775C20.2192 35.2713 23.2949 32.4001 27.0008 32.4001C30.6955 32.4001 33.81 35.2701 34.0193 38.8273C34.0393 39.1687 33.8642 39.4919 33.5673 39.6616C29.4825 41.9958 24.4792 41.7756 20.2983 39.6851C19.9592 39.5156 19.7627 39.1516 19.807 38.775ZM21.7081 38.3601C25.1188 39.8708 28.9624 39.9715 32.1554 38.3763C31.7338 36.0636 29.5819 34.2001 27.0008 34.2001C24.4511 34.2001 22.2814 36.0323 21.7081 38.3601Z" fill="white"/>
</svg>
