<svg width="54" height="54" viewBox="0 0 54 54" fill="none" xmlns="http://www.w3.org/2000/svg">
<path fill-rule="evenodd" clip-rule="evenodd" d="M26.8628 1.63777C22.4163 1.63777 18.2969 3.09065 14.9318 5.55722L14 4.22572C17.627 1.56717 22.0702 0 26.8628 0C32.773 0 38.3353 2.35729 42.5159 6.63471L42.5161 6.63486C46.6966 10.9145 49 16.6071 49 22.6558V25H47.3997V22.6558C47.3997 17.0415 45.265 11.7655 41.3845 7.79294C41.3845 7.79289 41.3844 7.79284 41.3844 7.79279M26.8628 1.63777C32.3486 1.63777 37.5038 3.8225 41.3844 7.79279L26.8628 1.63777Z" fill="white"/>
<path fill-rule="evenodd" clip-rule="evenodd" d="M14 6.2736C9.48029 10.1882 6.60404 16.0653 6.60404 22.6232V25H5V22.6232C5 15.5513 8.1036 9.21549 12.9707 5L14 6.2736Z" fill="white"/>
<path fill-rule="evenodd" clip-rule="evenodd" d="M9 21.1494C9 10.5733 17.0587 2 27 2C31.97 2 36.471 4.14451 39.728 7.60843L39.7282 7.60862C42.9842 11.0737 45 15.8621 45 21.1494V43.7129L35.3304 54H31.1669V52.3817H34.7003L43.4789 43.0426V21.1494C43.4789 16.3086 41.6351 11.9268 38.6524 8.75271C35.6688 5.57973 31.5502 3.61826 27 3.61826C17.8988 3.61826 10.5211 11.467 10.5211 21.1494V43.0426L19.2997 52.3817H29.6457V54H18.6696L9 43.7129V21.1494Z" fill="white"/>
<path fill-rule="evenodd" clip-rule="evenodd" d="M9 24H25V28.5592L20.3089 33H9V24ZM10.5851 25.5005V31.4995H19.6523L23.4149 27.9377V25.5005H10.5851Z" fill="white"/>
<path fill-rule="evenodd" clip-rule="evenodd" d="M29 24H45V33H33.6911L29 28.5592V24ZM30.5851 25.5005V27.9377L34.3477 31.4995H43.4149V25.5005H30.5851Z" fill="white"/>
<path fill-rule="evenodd" clip-rule="evenodd" d="M22 40H32V46H22V40ZM23.4286 41.3846V44.6154H30.5714V41.3846H23.4286Z" fill="white"/>
<path fill-rule="evenodd" clip-rule="evenodd" d="M51 39V44H32V42.5861H49.4254V39H51Z" fill="white"/>
<path fill-rule="evenodd" clip-rule="evenodd" d="M3 24H10V39H3V24ZM4.65354 25.4469V37.5531H8.34646V25.4469H4.65354Z" fill="white"/>
<path fill-rule="evenodd" clip-rule="evenodd" d="M0 27H4V37H0V27ZM1.33333 28.4899V35.5101H2.66667V28.4899H1.33333Z" fill="white"/>
<path fill-rule="evenodd" clip-rule="evenodd" d="M51 39L44 39L44 24L51 24L51 39ZM49.3465 37.5531L49.3465 25.4469L45.6535 25.4469L45.6535 37.5531L49.3465 37.5531Z" fill="white"/>
<path fill-rule="evenodd" clip-rule="evenodd" d="M54 37L50 37L50 27L54 27L54 37ZM52.6667 35.5101L52.6667 28.4899L51.3333 28.4899L51.3333 35.5101L52.6667 35.5101Z" fill="white"/>
<path fill-rule="evenodd" clip-rule="evenodd" d="M25.1427 12.2103V6H27V12.8799L23.8573 15.6153V20H22V14.9458L25.1427 12.2103Z" fill="white"/>
<path fill-rule="evenodd" clip-rule="evenodd" d="M27 6H28.8573V12.2103L32 14.9458V20H30.1427V15.6153L27 12.8799V6Z" fill="white"/>
<path fill-rule="evenodd" clip-rule="evenodd" d="M21 9V12H19V9H21Z" fill="white"/>
<path fill-rule="evenodd" clip-rule="evenodd" d="M35 9V12H33V9H35Z" fill="white"/>
<path fill-rule="evenodd" clip-rule="evenodd" d="M27 34H25V32H27V34Z" fill="white"/>
<path fill-rule="evenodd" clip-rule="evenodd" d="M29 34H27V32H29V34Z" fill="white"/>
</svg>
